<svg width="300" height="109" viewBox="0 0 300 109" fill="none" xmlns="http://www.w3.org/2000/svg">
<path d="M111.785 38.2387V53.9303H129.591V61.0594H111.783V80.6191H104.003V30.9336H131.351V38.2387H111.785Z" fill="black"/>
<path d="M173.607 44.0249V80.5992H167.543L166.812 76.1523C165.072 77.887 163.001 79.2549 160.723 80.1751C158.445 81.0953 156.005 81.5491 153.548 81.5095C142.653 81.5095 134.506 73.2752 134.506 62.3126C134.506 51.321 142.653 43.154 153.548 43.154C158.94 43.154 163.605 45.1906 166.926 48.5981L167.805 44.0239L173.607 44.0249ZM166.071 62.3126C166.071 55.4188 161.033 50.3126 154.139 50.3126C147.245 50.3126 142.159 55.4645 142.159 62.3126C142.159 69.1608 147.245 74.3128 154.139 74.3128C161.033 74.3128 166.071 69.2056 166.071 62.3126Z" fill="black"/>
<path d="M221.56 62.3305C221.56 73.2922 213.624 81.5077 202.545 81.5077C197.748 81.5767 193.115 79.7672 189.634 76.4658L188.667 80.6179H182.98V30.9328H190.498V47.4018C193.882 44.6003 198.152 43.0945 202.545 43.1539C213.624 43.1539 221.56 51.3209 221.56 62.3323V62.3305ZM213.887 62.3323C213.887 55.439 208.848 50.3326 201.954 50.3326C195.061 50.3326 189.974 55.4847 189.974 62.3323C189.974 69.1106 195.061 74.3119 201.954 74.3119C208.848 74.3119 213.887 69.2078 213.887 62.3323Z" fill="black"/>
<path d="M235.742 30.9333H228.223V80.6179H235.742V30.9333Z" fill="black"/>
<path d="M279.836 62.4202C279.827 63.2453 279.775 64.0694 279.681 64.8891H249.995C250.936 70.8161 255.201 74.4602 261.189 74.4602C265.56 74.4602 269.097 72.4393 271.031 69.1048H278.946C276.034 76.827 269.359 81.5113 261.19 81.5113C250.499 81.5113 242.399 73.2578 242.399 62.3338C242.399 51.3891 250.478 43.1557 261.19 43.1557C272.385 43.1557 279.838 51.7766 279.838 62.4197L279.836 62.4202ZM250.182 58.7806H272.297C270.949 53.2254 266.762 49.9452 261.187 49.9452C255.532 49.9452 251.413 53.3558 250.18 58.7806" fill="black"/>
<path d="M36.6789 61.0843V80.58C39.5837 82.7649 42.9394 84.2744 46.5013 84.9986V61.0843H36.6789Z" fill="url(#paint0_linear)"/>
<path d="M56.3242 61.0837V84.9994C59.8862 84.275 63.2418 82.7653 66.1466 80.5803V61.0855H56.3242V61.0837Z" fill="url(#paint1_linear)"/>
<path d="M17.0336 17.0336V60.9327C17.0336 60.9856 17.0372 61.0371 17.0372 61.089C17.0398 61.623 17.051 62.1549 17.0775 62.6826C17.0954 63.0361 17.1285 63.386 17.1568 63.7368C17.1751 63.9608 17.1854 64.1848 17.2078 64.4088C17.2526 64.8438 17.3109 65.2742 17.3705 65.7043C17.3888 65.8387 17.4018 65.9732 17.4216 66.1076C17.4959 66.5977 17.5846 67.0828 17.6791 67.5662C17.6926 67.6352 17.7024 67.7056 17.7163 67.775C17.8238 68.3086 17.9457 68.8368 18.0779 69.361C18.0819 69.3775 18.085 69.3945 18.0891 69.411C19.4466 74.7225 22.0524 79.6332 25.6897 83.735C29.327 87.8368 33.8907 91.0112 39.0017 92.9943L39.0232 93.0028C46.9922 96.0815 55.822 96.0828 63.7918 93.0064L63.8366 92.9885C68.6806 91.1057 73.0359 88.1516 76.5766 84.3474C80.1174 80.5433 82.7519 75.9876 84.2829 71.0213L84.291 70.9916C84.4499 70.4713 84.5971 69.9463 84.7327 69.4165C84.7448 69.3681 84.7542 69.3192 84.7663 69.2708C84.8891 68.778 85.0051 68.2798 85.1064 67.7776C85.1247 67.688 85.1373 67.5985 85.1543 67.5089C85.2439 67.0448 85.3299 66.5793 85.4016 66.1093C85.4235 65.961 85.4374 65.8101 85.458 65.6613C85.5154 65.246 85.5732 64.8312 85.6153 64.4114C85.639 64.1744 85.6507 63.9334 85.6695 63.6947C85.6959 63.3582 85.7282 63.0226 85.7457 62.6844C85.7721 62.1566 85.7833 61.6249 85.786 61.0909C85.786 61.0389 85.7895 60.9873 85.7895 60.9345V17.0353L17.0336 17.0336ZM75.9685 36.5574V60.9385C75.9698 65.4994 74.7006 69.9704 72.3033 73.8504C69.9059 77.7303 66.4751 80.8659 62.3956 82.9052C58.316 84.9445 53.7491 85.8071 49.2067 85.3963C44.6644 84.9855 40.3263 83.3175 36.6788 80.5793C33.6273 78.2945 31.1506 75.3296 29.4455 71.9201C27.7403 68.5106 26.8537 64.7506 26.856 60.9385V32.0075C26.856 29.5986 28.4813 27.3662 30.8526 26.9384C31.5626 26.8044 32.2935 26.8287 32.9931 27.0094C33.6927 27.1901 34.3438 27.5228 34.9001 27.9839C35.4565 28.445 35.9043 29.023 36.2117 29.6769C36.5192 30.3308 36.6787 31.0444 36.6788 31.767V61.0837H46.5013V32.0085C46.5013 29.5996 48.1257 27.3671 50.497 26.9393C51.2071 26.8053 51.9381 26.8295 52.6378 27.0101C53.3375 27.1908 53.9887 27.5235 54.5452 27.9846C55.1017 28.4456 55.5497 29.0237 55.8573 29.6776C56.165 30.3315 56.3247 31.0452 56.325 31.7678V36.5584V49.8443C56.325 49.851 56.325 49.8568 56.325 49.8635V61.0845H66.1474V31.7678C66.1474 30.4654 66.6648 29.2163 67.5858 28.2953C68.5068 27.3743 69.7559 26.8569 71.0584 26.8569C72.3609 26.8569 73.61 27.3743 74.531 28.2953C75.452 29.2163 75.9694 30.4654 75.9694 31.7678L75.9685 36.5574Z" fill="#DD2764"/>
<defs>
<linearGradient id="paint0_linear" x1="41.5901" y1="61.0843" x2="41.5901" y2="84.9986" gradientUnits="userSpaceOnUse">
<stop stop-color="#DD2665"/>
<stop offset="0.999" stop-color="#DD2665" stop-opacity="0"/>
</linearGradient>
<linearGradient id="paint1_linear" x1="61.2354" y1="61.0837" x2="61.2354" y2="84.9994" gradientUnits="userSpaceOnUse">
<stop stop-color="#DD2665"/>
<stop offset="0.999" stop-color="#DD2665" stop-opacity="0"/>
</linearGradient>
</defs>
</svg>
